<?xml version="1.0" standalone="no"?>
<!DOCTYPE svg PUBLIC "-//W3C//DTD SVG 20010904//EN"
 "http://www.w3.org/TR/2001/REC-SVG-20010904/DTD/svg10.dtd">
<svg version="1.0" xmlns="http://www.w3.org/2000/svg"
 width="138.000000pt" height="176.000000pt" viewBox="0 0 138.000000 176.000000"
 preserveAspectRatio="xMidYMid meet">

<g transform="translate(0.000000,176.000000) scale(0.100000,-0.100000)"
fill="#000000" stroke="none">
<path d="M615 1750 c-252 -29 -467 -192 -558 -420 -37 -93 -48 -153 -49 -251
-1 -195 69 -361 208 -496 55 -52 65 -68 70 -106 4 -28 2 -47 -5 -51 -8 -5 -8
-13 -1 -27 10 -18 25 -19 405 -19 380 0 395 1 405 19 7 14 7 22 -1 27 -7 4 -9
23 -5 50 5 36 16 53 78 116 118 118 176 239 199 409 25 181 -42 385 -176 536
-60 68 -165 137 -264 173 -70 26 -102 32 -216 44 -16 2 -57 0 -90 -4z m203
-263 c18 -12 -15 -93 -50 -122 -24 -20 -40 -25 -85 -25 -49 0 -59 4 -89 34
-29 29 -37 50 -33 82 0 4 -5 10 -12 15 -14 8 -9 11 36 23 28 7 219 1 233 -7z
m-274 -133 c29 -43 75 -64 141 -64 98 0 165 58 165 144 0 37 1 38 28 32 45
-11 105 -59 137 -110 26 -43 30 -60 33 -138 6 -149 -45 -244 -154 -283 -104
-37 -435 -28 -403 11 17 21 -13 53 -34 36 -28 -24 -70 1 -101 58 -38 70 -48
190 -22 268 21 61 81 126 139 151 l42 18 6 -49 c4 -26 14 -60 23 -74z m-237
-6 c-2 -24 -4 -5 -4 42 0 47 2 66 4 43 2 -24 2 -62 0 -85z m770 -5 c-2 -21 -4
-6 -4 32 0 39 2 55 4 38 2 -18 2 -50 0 -70z m-775 -263 c-2 -3 -10 4 -18 14
-18 25 -19 157 -1 175 10 10 13 -7 18 -86 3 -54 4 -100 1 -103z m798 100 c0
-57 -4 -81 -15 -90 -9 -7 -16 -11 -18 -9 -1 2 -1 48 1 102 3 84 5 97 18 86 10
-8 14 -34 14 -89z m-593 -316 c81 -19 336 -15 392 6 33 13 35 12 58 -16 12
-16 23 -32 23 -36 0 -5 -133 -8 -295 -8 l-296 0 12 23 c13 24 30 47 35 47 1 0
33 -7 71 -16z m577 -90 c20 -19 20 -21 -4 -179 -11 -71 -20 -133 -20 -137 0
-5 -78 -7 -172 -7 -95 1 -162 4 -148 6 57 10 33 18 -55 18 -87 0 -108 -6 -60
-18 11 -3 -55 -5 -147 -6 -128 -1 -168 2 -168 12 0 6 -9 71 -20 142 -24 158
-24 150 -4 169 13 14 64 16 399 16 335 0 386 -2 399 -16z"/>
<path d="M461 1234 c-61 -43 -63 -149 -4 -215 58 -64 190 -93 316 -69 68 12
132 44 122 59 -3 5 0 13 6 17 8 4 9 3 5 -4 -4 -7 -3 -12 1 -12 21 0 47 67 48
123 0 54 -3 61 -33 88 l-32 29 -203 0 c-171 0 -206 -3 -226 -16z m142 -141 c3
-5 -10 -8 -28 -8 -18 0 -31 3 -28 8 2 4 15 7 28 7 13 0 26 -3 28 -7z m221 -2
c3 -4 -6 -6 -19 -3 -14 2 -25 6 -25 8 0 8 39 4 44 -5z"/>
<path d="M659 656 c-13 -6 -30 -24 -37 -39 -11 -22 -10 -31 3 -57 29 -56 107
-48 128 14 17 52 -45 107 -94 82z"/>
<path d="M300 240 l0 -90 70 0 c56 0 70 3 70 15 0 11 -12 15 -45 15 -38 0 -45
3 -45 20 0 17 7 20 40 20 33 0 40 3 40 20 0 17 -7 20 -40 20 -33 0 -40 3 -40
20 0 17 7 20 45 20 33 0 45 4 45 15 0 12 -14 15 -70 15 l-70 0 0 -90z"/>
<path d="M500 240 c0 -89 0 -90 25 -90 21 0 25 5 25 30 0 24 4 30 21 30 14 0
24 -10 32 -30 8 -22 18 -30 35 -30 19 0 23 4 17 18 -15 34 -17 60 -6 66 15 10
14 69 -1 84 -7 7 -40 12 -80 12 l-68 0 0 -90z m110 35 c0 -21 -5 -25 -30 -25
-25 0 -30 4 -30 25 0 21 5 25 30 25 25 0 30 -4 30 -25z"/>
<path d="M720 240 l0 -90 68 0 c40 0 73 5 80 12 14 14 16 64 4 72 -5 3 -7 19
-4 36 7 47 -11 60 -84 60 l-64 0 0 -90z m105 40 c0 -18 -43 -26 -57 -12 -16
16 2 33 30 30 16 -2 27 -9 27 -18z m3 -77 c3 -20 -1 -23 -27 -23 -33 0 -46 13
-37 36 9 25 60 14 64 -13z"/>
<path d="M920 323 c0 -4 14 -35 30 -68 16 -33 30 -70 30 -82 0 -18 6 -23 25
-23 22 0 25 4 25 33 0 18 4 37 9 43 5 5 18 30 29 57 l21 47 -28 0 c-24 0 -30
-6 -40 -40 -15 -50 -25 -51 -37 -2 -7 30 -14 38 -36 40 -16 2 -28 0 -28 -5z"/>
</g>
</svg>
