<?xml version="1.0" encoding="UTF-8"?><svg id="Capa_1" xmlns="http://www.w3.org/2000/svg" viewBox="0 0 2000 703.77"><defs><style>.cls-1{fill:#f5b73f;}</style></defs><path d="M1118.36,352.8c-1.21-17.33-4.08-34.26-9.91-50.48-12.14-33.77-34.01-55.93-66.78-64.08-27.9-6.94-55.63-5.41-82.45,5.79-28.67,11.97-48.48,33.76-58.45,65.55-5.27,16.77-6.89,34.07-5.79,51.75,1.09,17.7,4.87,34.58,12.79,50.17,14.85,29.24,38.33,46.19,67.4,54.78,21.26,6.28,42.81,6.83,64.58,3.21,37.56-6.24,55.79-25.38,68.33-40.36,2.81-3.35,2.22-8.37-1.3-10.96l-34.52-25.46c-2.72-2.01-6.45-1.98-9.12,.1-7.74,6.07-26.03,17.02-55.59,12.43-15.59-2.42-26.94-10.76-32.64-27.17-1.64-4.73-1.61-4.8,2.92-4.8h68.27c23.07,0,46.13-.04,69.19,.05,2.75,.01,3.81-.81,3.69-3.93-.23-5.53-.24-11.05-.63-16.59Zm-81.06-27.15c-10.19-.19-20.39-.08-30.58-.08s-20.8-.05-31.2,.04c-2.46,.02-3.23-.61-2.56-3.47,4.29-18.37,15.33-27.9,32.74-28.19,7.65-.12,15.08,.78,21.92,4.8,8.34,4.9,12.41,12.73,13.17,22.84,.22,2.93-.51,4.11-3.49,4.06Z"/><circle class="cls-1" cx="339.93" cy="169.92" r="40.97"/><g><path d="M1620.35,467.38c-10.26-.02-20.29-.99-30.02-3.1v29.93c0,4.18,3.39,7.57,7.57,7.57h42.06c4.18,0,7.57-3.39,7.57-7.57v-29.37c-8.97,1.84-18.01,2.82-27.17,2.54Z"/><path d="M1667.85,344.62c1.3,0,2.62-.24,3.9-.75,5.38-2.15,8-8.26,5.85-13.65-.44-1.1-11.07-27.1-35.05-35.93-5.44-2-11.48,.78-13.48,6.22-2,5.44,.78,11.48,6.22,13.48,15.05,5.55,22.69,23.74,22.83,24.06,1.65,4.08,5.58,6.57,9.74,6.57Z"/><path d="M1766.43,319.12h-28.3c-2.79-14.09-7.5-26.53-13.95-37.41l18.91-18.91c2.95-2.95,2.95-7.75,0-10.7l-28.34-28.34c-2.95-2.95-7.75-2.95-10.7,0l-19.68,19.68c-4-2.24-8.18-4.3-12.55-6.17-7.71-3.3-15.48-5.8-23.28-7.54v-28.04c0-4.18-3.39-7.57-7.57-7.57h-40.07c-4.18,0-7.57,3.39-7.57,7.57v27.98c-4.99,1.04-9.97,2.34-14.96,3.91-7.94,2.49-15.49,5.74-22.6,9.76l-19.58-19.58c-2.95-2.95-7.75-2.95-10.7,0l-28.34,28.34c-2.95,2.95-2.95,7.75,0,10.7l19.13,19.13c-7.17,11.69-12.01,24.12-14.74,37.19h-27.72c-4.18,0-7.57,3.39-7.57,7.57v40.07c0,4.18,3.39,7.57,7.57,7.57h27.79c2.73,13.89,7.5,26.43,14.26,37.61l-18.71,18.71c-2.95,2.95-2.95,7.75,0,10.7l28.34,28.34c2.95,2.95,7.74,2.95,10.7,0l19.1-19.1c11.13,6.61,22.84,11.05,35.01,13.69v-10.33s4.32-17.35-21.13-41.75c-7.94-7.62-13.26-16.02-16.82-23.97-.38-.95-.75-1.91-1.1-2.88-3.68-10.09-5.73-20.08-6.03-29.95h0c-.42-13.86,2.62-27.5,9.49-40.92,14.32-27.95,44-44.22,73.36-40.19,19.44,2.68,35.59,12.08,48.15,28.3,12.41,16.03,18.21,34.68,17.02,55.47-1.76,17.68-5.2,31.13-26.81,55.18-21.61,24.05-18.94,38.07-18.94,38.07v13.53c.39-.08,.78-.17,1.17-.25,12.92-2.78,25.16-7.22,36.44-13.84l18.94,18.94c2.95,2.95,7.74,2.95,10.7,0l28.34-28.34c2.95-2.95,2.95-7.75,0-10.7l-18.87-18.87c7.11-11.64,11.91-24.16,14.51-37.46h27.68c4.18,0,7.57-3.39,7.57-7.57v-40.07c0-4.18-3.39-7.57-7.57-7.57Z"/></g><path class="cls-1" d="M369.37,237.87h-58.88c-4.18,0-7.57,3.38-7.57,7.56v69.36h-69.34c-4.19,0-7.58,3.39-7.58,7.56v58.89c0,4.18,3.39,7.56,7.58,7.56h69.34v69.36c0,4.18,3.39,7.57,7.57,7.57h58.88c4.18,0,7.56-3.39,7.56-7.57V245.43c0-4.18-3.38-7.56-7.56-7.56Z"/><path d="M883.37,263.26c.02-1.92-.05-3.77-.21-5.55v-12.28c0-4.18-3.39-7.57-7.57-7.57h-65.67c-4.18,0-7.57,3.39-7.57,7.57v13.58c-.26,.52-.53,1.04-.79,1.57-.37-.42-.93-1.03-1.46-1.67-8.18-10.01-18.53-16.87-30.74-20.96-16.14-5.41-32.67-5.74-49.27-3.12-22.35,3.53-41.57,13.37-56.39,30.63-22.12,25.79-31.23,59.48-27.42,92.96,3.16,27.78,16.81,49.53,39.92,65.13,21.65,14.62,47.71,19.18,73.7,18.21,10.65-.4,19.88-4.72,29.52-9.38,8.68-4.19,16-10.08,22.38-18.01,.73,2.77-.07,4.84-.33,6.9-2.47,19.9-13.8,32.92-33.2,38.03-10.28,2.71-20.77,3.14-31.36,2.71-14.74-.6-42.08-8.28-58.95-14.74-3.66-1.4-7.78,.2-9.51,3.71l-21.63,43.89c-1.89,3.83-.24,8.45,3.64,10.23,10.97,5.02,28.47,11.81,35.53,13.99,25,7.71,50.6,10.19,76.68,9.08,15.41-.66,30.54-2.7,45.29-7.21,25.73-7.87,46.68-22.13,60.16-45.99,10.46-18.54,14.78-38.81,14.91-59.84,.31-50.62-.1-101.25,.34-151.87Zm-82.89,89.85c-4.71,16.06-16.37,23.96-32.17,26.78-3.35,.6-6.75,.88-9.31,.74-9.07,.07-16.95-1.29-24.37-4.99-9.13-4.55-14.99-11.83-17.71-21.53-2.96-10.54-2.53-21.1,1.21-31.39,4.24-11.66,12.34-19.55,24.21-23.2,12.43-3.81,24.84-3.52,36.85,1.66,11.91,5.13,18.95,14.43,21.79,26.98,1.89,8.35,1.92,16.73-.5,24.95Z"/><path class="cls-1" d="M623.57,356.18c0-15.15,.01-29.47,.02-41.49,.01-5.73-.26-11.43-1.2-17.09-4.11-24.57-16.71-42.97-38.33-54.64-14.17-7.64-29.46-10.16-45.34-9.51-14.69,.61-28.17,4.93-40.13,13.82-6.97,5.18-12.73,11.52-18.04,18.53v-20.37c0-4.18-3.39-7.56-7.57-7.56h-62.67c-4.18,0-7.56,3.38-7.56,7.56v69.36h44.18c4.19,0,7.59,3.39,7.59,7.56v58.89c0,4.18-3.4,7.56-7.59,7.56h-44.18v69.36c0,4.18,3.38,7.57,7.56,7.57h62.67c4.18,0,7.57-3.39,7.57-7.57v-106.33c0-4.73,.01-9.18,.02-13.2,0,0,1.52-35.76,33.12-35.76s31.29,31.92,31.31,33.97c0,6.12,.01,12.89,.02,20.03,0,.08-.01,.16-.01,.24v62.58c-.04,8.63-.11,16.64-.21,23.49-.03,1.86,.03,3.64,.21,5.34v9.64c0,4.18,3.39,7.57,7.57,7.57h63.48c4.18,0,7.57-3.39,7.57-7.57v-101.05c0-.32-.02-.63-.06-.93Zm-23.52-41.09c-5.5,0-9.96-4.44-10-9.93-.01-.41-.47-14.34-11.45-27.75-8.64-10.57-21.5-12.66-21.63-12.68-5.47-.77-9.25-5.82-8.48-11.29,.76-5.47,5.85-9.27,11.32-8.51,.83,.11,20.55,3.04,34.27,19.81,15.79,19.3,15.97,39.49,15.97,40.35,0,5.52-4.48,10-10,10Z"/><circle cx="1414.01" cy="169.92" r="40.97"/><rect x="1377" y="237.86" width="74.02" height="227.86" rx="7.57" ry="7.57"/><path d="M1351.63,356.18c0-15.15,.01-29.47,.03-41.49,0-5.74-.26-11.44-1.21-17.09-4.1-24.57-16.71-42.98-38.33-54.64-14.17-7.64-29.46-10.16-45.33-9.51-14.69,.61-28.17,4.93-40.13,13.81-6.97,5.18-12.73,11.52-18.04,18.53v-20.37c0-4.18-3.39-7.57-7.57-7.57h-62.67c-4.18,0-7.57,3.39-7.57,7.57v212.73c0,4.18,3.39,7.57,7.57,7.57h62.67c4.18,0,7.57-3.39,7.57-7.57v-7.75s0-.04,0-.06c0-.4,0-.81,0-1.22v-97.31c0-4.73,.01-9.18,.02-13.2,0,0,1.52-35.76,33.12-35.76s31.3,31.92,31.31,33.97c0,6.12,.01,12.88,.03,20.02,0,.08-.01,.16-.01,.24v62.58c-.04,8.63-.11,16.64-.21,23.49-.03,1.87,.03,3.65,.21,5.35v9.64c0,4.18,3.39,7.57,7.57,7.57h63.49c4.18,0,7.57-3.39,7.57-7.57v-101.05c0-.31-.03-.62-.06-.93Z"/><g><path d="M936.18,526.86c1.17,.66,1.68,2.05,1.1,3.29l-2.78,5.64c-.59,1.32-2.42,1.76-3.66,1.17-4.91-2.42-10.4-4.03-13.91-4.03s-5.64,1.25-5.64,3.73c0,8.86,27.09,3.81,27.09,22.33,0,10.25-9.08,15.67-20.5,15.67-7.91,0-16.04-2.78-22.04-7.1-.95-.73-1.03-1.9-.44-2.93l2.64-5.27c.73-1.39,2.71-1.9,4.03-.95,5.05,3.52,11.42,5.71,15.96,5.71,4.1,0,6.66-1.54,6.66-4.47,0-9.08-27.09-3.66-27.09-21.82,0-9.45,8.13-15.45,20.43-15.45,6.44,0,13.03,1.76,18.16,4.47Z"/><path d="M983.04,533.23h-21.97c-1.39,0-2.56,1.17-2.56,2.56v5.05c0,1.39,1.17,2.56,2.56,2.56h19.33c1.39,0,2.56,1.17,2.56,2.56v5.13c0,1.39-1.17,2.56-2.56,2.56h-19.33c-1.39,0-2.56,1.17-2.56,2.56v5.2c0,1.39,1.17,2.56,2.56,2.56h22.77c1.39,0,2.56,1.17,2.56,2.56v5.13c0,1.39-1.17,2.56-2.56,2.56h-35.81c-1.39,0-2.56-1.17-2.56-2.56v-46.13c0-1.39,1.17-2.56,2.56-2.56h35c1.39,0,2.56,1.17,2.56,2.56v5.13c0,1.39-1.17,2.56-2.56,2.56Z"/><path d="M1025,572.84l-6.88-13.03h-7.69c-1.39,0-2.56,1.17-2.56,2.56v9.3c0,1.39-1.17,2.56-2.56,2.56h-7.91c-1.39,0-2.56-1.17-2.56-2.56v-46.13c0-1.39,1.17-2.56,2.56-2.56h20.36c13.55,0,21.31,6.44,21.31,17.87,0,6.66-2.42,11.72-6.81,14.94-1.03,.81-1.68,2.78-.95,3.95l6.74,10.54c1.17,1.83,0,3.95-2.2,3.95h-8.57c-.73,0-1.9-.73-2.27-1.39Zm-14.57-23.29h7.32c5.64,0,8.93-2.86,8.93-8.27s-3.29-8.05-8.93-8.05h-7.32c-1.39,0-2.56,1.17-2.56,2.56v11.2c0,1.39,1.17,2.56,2.56,2.56Z"/><path d="M1074.28,574.24h-9.96c-.88,0-2.05-.81-2.42-1.61l-17.87-46.13c-.73-1.83,.44-3.51,2.34-3.51h8.35c.95,0,2.12,.81,2.42,1.76l10.1,29c.81,2.34,4.03,2.34,4.83,0l10.11-29c.29-.95,1.46-1.76,2.42-1.76h7.83c1.9,0,3.08,1.68,2.34,3.51l-18.09,46.13c-.37,.81-1.54,1.61-2.42,1.61Z"/><path d="M1111.69,574.24h-7.91c-1.39,0-2.56-1.17-2.56-2.56v-46.13c0-1.39,1.17-2.56,2.56-2.56h7.91c1.39,0,2.56,1.17,2.56,2.56v46.13c0,1.39-1.17,2.56-2.56,2.56Z"/><path d="M1167.56,529.64c1.02,.95,1.02,2.27,.15,3.29l-4.39,5.13c-.81,1.03-2.64,.88-3.59,.07-3.22-2.93-7.25-4.69-10.98-4.69-8.13,0-14.28,6.44-14.28,14.87s6.15,15.08,14.28,15.08c3.59,0,7.54-1.61,10.91-4.17,.95-.81,2.86-.88,3.74,0l4.17,4.47c1.02,1.03,1.1,2.42-.07,3.37-5.35,4.76-12.6,7.76-19.41,7.76-15.45,0-26.95-11.35-26.95-26.36s11.79-25.92,27.39-25.92c6.88,0,13.91,2.71,19.04,7.1Z"/><path d="M1185.65,574.24h-7.91c-1.39,0-2.56-1.17-2.56-2.56v-46.13c0-1.39,1.17-2.56,2.56-2.56h7.91c1.39,0,2.56,1.17,2.56,2.56v46.13c0,1.39-1.17,2.56-2.56,2.56Z"/><path d="M1250.53,548.53c0,14.94-11.86,26.29-27.75,26.29s-27.68-11.28-27.68-26.29,11.86-26,27.68-26,27.75,11.13,27.75,26Zm-42.11,.07c0,8.64,6.66,15.3,14.5,15.3s14.21-6.66,14.21-15.3-6.3-15.16-14.21-15.16-14.5,6.52-14.5,15.16Z"/><path d="M1295.27,526.86c1.17,.66,1.68,2.05,1.1,3.29l-2.78,5.64c-.59,1.32-2.42,1.76-3.66,1.17-4.91-2.42-10.4-4.03-13.91-4.03s-5.64,1.25-5.64,3.73c0,8.86,27.09,3.81,27.09,22.33,0,10.25-9.08,15.67-20.5,15.67-7.91,0-16.04-2.78-22.04-7.1-.95-.73-1.02-1.9-.44-2.93l2.64-5.27c.73-1.39,2.71-1.9,4.03-.95,5.05,3.52,11.42,5.71,15.96,5.71,4.1,0,6.66-1.54,6.66-4.47,0-9.08-27.09-3.66-27.09-21.82,0-9.45,8.13-15.45,20.43-15.45,6.44,0,13.03,1.76,18.16,4.47Z"/><path d="M1358.16,548.17h6.15c1.39,0,2.56,1.17,2.56,2.56v16.11c0,.66-.73,1.83-1.32,2.2-5.49,3.37-13.33,5.79-19.99,5.79-15.6,0-27.39-11.28-27.39-26.22s12.08-26.07,28.27-26.07c6.66,0,13.69,2.27,18.82,5.93,1.24,.88,1.54,2.42,.51,3.59l-4.1,4.98c-.8,.95-2.71,1.03-3.66,.29-3.51-2.42-7.69-3.88-11.64-3.88-8.42,0-14.87,6.59-14.87,15.16s6.52,15.3,15.01,15.3c2.27,0,4.98-.66,7.69-1.83,.81-.37,1.39-1.39,1.39-2.27v-9.08c0-1.39,1.17-2.56,2.56-2.56Z"/><path d="M1413.52,533.23h-21.97c-1.39,0-2.56,1.17-2.56,2.56v5.05c0,1.39,1.17,2.56,2.56,2.56h19.33c1.39,0,2.56,1.17,2.56,2.56v5.13c0,1.39-1.17,2.56-2.56,2.56h-19.33c-1.39,0-2.56,1.17-2.56,2.56v5.2c0,1.39,1.17,2.56,2.56,2.56h22.77c1.39,0,2.56,1.17,2.56,2.56v5.13c0,1.39-1.17,2.56-2.56,2.56h-35.81c-1.39,0-2.56-1.17-2.56-2.56v-46.13c0-1.39,1.17-2.56,2.56-2.56h35c1.39,0,2.56,1.17,2.56,2.56v5.13c0,1.39-1.17,2.56-2.56,2.56Z"/><path d="M1470.05,574.24h-7.62c-.59,0-1.76-.59-2.05-1.03l-18.23-24.38c-1.54-1.98-4.61-.95-4.61,1.54v21.31c0,1.39-1.17,2.56-2.56,2.56h-7.1c-1.39,0-2.56-1.17-2.56-2.56v-46.13c0-1.39,1.17-2.56,2.56-2.56h7.62c.59,0,1.76,.59,2.05,1.03l18.31,24.46c1.54,2.05,4.61,1.02,4.61-1.54v-21.38c0-1.39,1.17-2.56,2.56-2.56h7.03c1.39,0,2.56,1.17,2.56,2.56v46.13c0,1.39-1.17,2.56-2.56,2.56Z"/><path d="M1520.43,533.23h-21.97c-1.39,0-2.56,1.17-2.56,2.56v5.05c0,1.39,1.17,2.56,2.56,2.56h19.33c1.39,0,2.56,1.17,2.56,2.56v5.13c0,1.39-1.17,2.56-2.56,2.56h-19.33c-1.39,0-2.56,1.17-2.56,2.56v5.2c0,1.39,1.17,2.56,2.56,2.56h22.77c1.39,0,2.56,1.17,2.56,2.56v5.13c0,1.39-1.17,2.56-2.56,2.56h-35.81c-1.39,0-2.56-1.17-2.56-2.56v-46.13c0-1.39,1.17-2.56,2.56-2.56h35c1.39,0,2.56,1.17,2.56,2.56v5.13c0,1.39-1.17,2.56-2.56,2.56Z"/><path d="M1562.38,572.84l-6.88-13.03h-7.69c-1.39,0-2.56,1.17-2.56,2.56v9.3c0,1.39-1.17,2.56-2.56,2.56h-7.91c-1.39,0-2.56-1.17-2.56-2.56v-46.13c0-1.39,1.17-2.56,2.56-2.56h20.36c13.55,0,21.31,6.44,21.31,17.87,0,6.66-2.42,11.72-6.81,14.94-1.03,.81-1.68,2.78-.95,3.95l6.74,10.54c1.17,1.83,0,3.95-2.2,3.95h-8.57c-.73,0-1.9-.73-2.27-1.39Zm-14.57-23.29h7.32c5.64,0,8.93-2.86,8.93-8.27s-3.29-8.05-8.93-8.05h-7.32c-1.39,0-2.56,1.17-2.56,2.56v11.2c0,1.39,1.17,2.56,2.56,2.56Z"/><path d="M1617.52,564.79h-18.89c-.88,0-2.05,.81-2.42,1.61l-2.42,6.22c-.37,.81-1.54,1.61-2.42,1.61h-7.76c-1.98,0-3.15-1.76-2.34-3.59l19.92-46.13c.37-.81,1.46-1.54,2.34-1.54h10.03c.88,0,1.98,.81,2.34,1.54l19.48,46.13c.73,1.83-.44,3.59-2.42,3.59h-8.28c-.88,0-2.05-.81-2.42-1.61l-2.34-6.22c-.37-.81-1.54-1.61-2.42-1.61Zm-3.37-13.4l-3.66-9.3c-.88-2.34-3.88-2.34-4.76,0l-3.66,9.3c-.73,1.83,.44,3.51,2.34,3.51h7.32c1.9,0,3.08-1.68,2.42-3.51Z"/><path d="M1657.21,563.33h16.62c1.39,0,2.56,1.17,2.56,2.56v5.79c0,1.39-1.17,2.56-2.56,2.56h-29.66c-1.39,0-2.56-1.17-2.56-2.56v-46.13c0-1.39,1.17-2.56,2.56-2.56h7.91c1.39,0,2.56,1.17,2.56,2.56v35.22c0,1.39,1.17,2.56,2.56,2.56Z"/><path d="M1720.18,533.23h-21.97c-1.39,0-2.56,1.17-2.56,2.56v5.05c0,1.39,1.17,2.56,2.56,2.56h19.33c1.39,0,2.56,1.17,2.56,2.56v5.13c0,1.39-1.17,2.56-2.56,2.56h-19.33c-1.39,0-2.56,1.17-2.56,2.56v5.2c0,1.39,1.17,2.56,2.56,2.56h22.77c1.39,0,2.56,1.17,2.56,2.56v5.13c0,1.39-1.17,2.56-2.56,2.56h-35.81c-1.39,0-2.56-1.17-2.56-2.56v-46.13c0-1.39,1.17-2.56,2.56-2.56h35c1.39,0,2.56,1.17,2.56,2.56v5.13c0,1.39-1.17,2.56-2.56,2.56Z"/><path d="M1769.83,526.86c1.17,.66,1.68,2.05,1.1,3.29l-2.78,5.64c-.59,1.32-2.42,1.76-3.66,1.17-4.91-2.42-10.4-4.03-13.91-4.03s-5.64,1.25-5.64,3.73c0,8.86,27.09,3.81,27.09,22.33,0,10.25-9.08,15.67-20.5,15.67-7.91,0-16.04-2.78-22.04-7.1-.95-.73-1.02-1.9-.44-2.93l2.64-5.27c.73-1.39,2.71-1.9,4.03-.95,5.05,3.52,11.42,5.71,15.96,5.71,4.1,0,6.66-1.54,6.66-4.47,0-9.08-27.09-3.66-27.09-21.82,0-9.45,8.13-15.45,20.43-15.45,6.44,0,13.03,1.76,18.16,4.47Z"/></g></svg>